HIERARCHY
ROOT Pelvis
{
	OFFSET 0.000000 0.941512 0.000000
	CHANNELS 6 Xposition Yposition Zposition Zrotation Yrotation Xrotation 
	JOINT Pelvis_L_Hip
	{
		OFFSET 0.000000 0.000000 0.000000
		CHANNELS 3 Zrotation Yrotation Xrotation
		JOINT L_Hip
		{
			OFFSET 0.062321 -0.080322 -0.016990
			CHANNELS 3 Zrotation Yrotation Xrotation
			JOINT L_Knee
			{
				OFFSET 0.093051 -0.381305 -0.029784
				CHANNELS 3 Zrotation Yrotation Xrotation
				JOINT L_Ankle
				{
					OFFSET -0.010371 -0.431000 -0.033614
					CHANNELS 3 Zrotation Yrotation Xrotation
					End Site #name: L_Foot
					{
						OFFSET 0.069299 -0.038670 0.119418
					}
				}
			}
		}
	}
	JOINT Pelvis_R_Hip
	{
		OFFSET 0.000000 0.000000 0.000000
		CHANNELS 3 Zrotation Yrotation Xrotation
		JOINT R_Hip
		{
			OFFSET -0.055334 -0.094904 -0.002373
			CHANNELS 3 Zrotation Yrotation Xrotation
			JOINT R_Knee
			{
				OFFSET -0.064207 -0.384370 -0.019592
				CHANNELS 3 Zrotation Yrotation Xrotation
				JOINT R_Ankle
				{
					OFFSET 0.025418 -0.419734 -0.065953
					CHANNELS 3 Zrotation Yrotation Xrotation
					End Site #name: R_Foot
					{
						OFFSET -0.057233 -0.039888 0.132134
					}
				}
			}
		}
	}
	JOINT Pelvis_Spine1
	{
		OFFSET 0.000000 0.000000 0.000000
		CHANNELS 3 Zrotation Yrotation Xrotation
		JOINT Spine1
		{
			OFFSET -0.005562 0.124093 -0.043360
			CHANNELS 3 Zrotation Yrotation Xrotation
			JOINT Spine2
			{
				OFFSET 0.012244 0.139499 0.029894
				CHANNELS 3 Zrotation Yrotation Xrotation
				JOINT Spine3
				{
					OFFSET -0.002556 0.056561 0.009225
					CHANNELS 3 Zrotation Yrotation Xrotation
					JOINT Spine3_Neck
					{
						OFFSET 0.000000 0.000000 0.000000
						CHANNELS 3 Zrotation Yrotation Xrotation
						JOINT Neck
						{
							OFFSET -0.005205 0.217920 -0.024551
							CHANNELS 3 Zrotation Yrotation Xrotation
							End Site #name: Head
							{
								OFFSET 0.002365 0.091850 0.046637
							}
						}
					}
					JOINT Spine3_L_Collar
					{
						OFFSET 0.000000 0.000000 0.000000
						CHANNELS 3 Zrotation Yrotation Xrotation
						JOINT L_Collar
						{
							OFFSET 0.072225 0.116603 -0.009480
							CHANNELS 3 Zrotation Yrotation Xrotation
							JOINT L_Shoulder
							{
								OFFSET 0.115937 -0.058643 -0.021018
								CHANNELS 3 Zrotation Yrotation Xrotation
								JOINT L_Elbow
								{
									OFFSET 0.021994 -0.254722 -0.024492
									CHANNELS 3 Zrotation Yrotation Xrotation
									End Site #name: L_Wrist
									{
										OFFSET 0.048810 -0.240214 0.103329
									}
								}
							}
						}
					}
					JOINT Spine3_R_Collar
					{
						OFFSET 0.000000 0.000000 0.000000
						CHANNELS 3 Zrotation Yrotation Xrotation
						JOINT R_Collar
						{
							OFFSET -0.073372 0.120704 -0.024611
							CHANNELS 3 Zrotation Yrotation Xrotation
							JOINT R_Shoulder
							{
								OFFSET -0.108089 -0.054969 -0.020504
								CHANNELS 3 Zrotation Yrotation Xrotation
								JOINT R_Elbow
								{
									OFFSET -0.033684 -0.260739 0.009889
									CHANNELS 3 Zrotation Yrotation Xrotation
									End Site #name: R_Wrist
									{
										OFFSET -0.067980 -0.232763 0.118463
									}
								}
							}
						}
					}
				}
			}
		}
	}
}
MOTION
Frames: 5
Frame Time: 0.041667
-0.174154 0.923903 0.729004 -5.933150 0.004119 -2.348898 0.000000 0.000000 0.000000 8.627687 -0.645183 0.023960 2.393694 -0.475902 6.362440 3.927786 10.572002 -0.570083 0.000000 0.000000 0.000000 4.004166 2.570699 -13.526089 0.726673 0.846977 17.628417 -0.235121 3.540645 -2.839049 0.000000 0.000000 0.000000 7.699179 -4.981821 19.664601 3.768860 -0.651384 -3.132014 3.026981 -1.131241 -3.813138 0.000000 0.000000 0.000000 -5.616306 2.929003 2.785875 0.000000 0.000000 0.000000 23.949374 -25.627172 -16.808709 -15.519774 -4.261395 -25.212108 -20.169302 -27.893734 -36.833985 0.000000 0.000000 0.000000 -26.318817 15.388365 -7.249687 1.667957 0.565243 -3.392584 -14.233111 3.786234 -55.096342 
-0.179816 0.923705 0.732964 -5.886401 -1.014018 -1.487631 0.000000 0.000000 0.000000 8.678175 -0.659772 -0.074472 2.593291 -0.489826 6.105395 4.049512 11.613665 -0.094013 0.000000 0.000000 0.000000 4.480725 2.843587 -14.652388 0.464249 1.005438 18.241533 -0.267775 4.164792 -3.249351 0.000000 0.000000 0.000000 9.221821 -5.427043 19.017263 4.499114 -0.743913 -2.950693 2.664815 -2.586277 -3.942423 0.000000 0.000000 0.000000 -6.135959 3.268472 3.364349 0.000000 0.000000 0.000000 27.908474 -28.679671 -20.682823 -15.017689 -5.343895 -30.394135 -18.449502 -25.921536 -36.329793 0.000000 0.000000 0.000000 -27.444673 15.341055 -6.804222 -1.484896 0.518259 -4.940063 -18.673919 -2.329792 -54.395049 
-0.184715 0.923502 0.737660 -5.784407 -1.984590 -0.792648 0.000000 0.000000 0.000000 8.620645 -0.641391 -0.029186 2.805954 -0.512573 5.996437 4.145685 12.525279 0.371105 0.000000 0.000000 0.000000 4.827575 3.076992 -15.582556 0.239868 1.167005 18.982685 -0.318854 4.842365 -3.714489 0.000000 0.000000 0.000000 10.666369 -5.879696 18.631296 5.129463 -0.822865 -3.177094 2.398599 -3.953630 -3.901329 0.000000 0.000000 0.000000 -6.891803 3.745954 3.773814 0.000000 0.000000 0.000000 32.686269 -31.413008 -25.046474 -13.903760 -6.542136 -36.787060 -16.390241 -22.804455 -34.235868 0.000000 0.000000 0.000000 -28.881843 15.277921 -6.298467 -4.540704 0.450803 -7.062800 -22.716941 -7.805144 -52.685540 
-0.189587 0.923234 0.742478 -5.644706 -2.909181 -0.022425 0.000000 0.000000 0.000000 8.581770 -0.649671 -0.126488 2.901204 -0.524799 5.991012 4.230983 13.327394 0.798262 0.000000 0.000000 0.000000 5.139412 3.349997 -16.673793 -0.022340 1.358844 19.880131 -0.367069 5.452570 -4.119775 0.000000 0.000000 0.000000 11.976535 -6.286222 18.299938 5.634299 -0.878642 -3.774800 2.159749 -5.219001 -3.769298 0.000000 0.000000 0.000000 -7.698998 4.267223 4.148858 0.000000 0.000000 0.000000 37.696178 -33.653271 -29.620325 -12.024188 -7.437449 -43.189691 -13.545459 -19.009980 -31.781655 0.000000 0.000000 0.000000 -30.137261 15.166111 -5.731335 -7.504213 0.309944 -9.547226 -26.314932 -12.377810 -49.534481 
-0.193994 0.922917 0.747006 -5.461680 -3.829786 0.696702 0.000000 0.000000 0.000000 8.557253 -0.669513 -0.290228 2.812418 -0.522015 6.193038 4.365158 14.036675 1.065147 0.000000 0.000000 0.000000 5.439123 3.627632 -17.741136 -0.406553 1.605541 20.792400 -0.443609 6.036871 -4.555711 0.000000 0.000000 0.000000 13.098486 -6.550447 17.690716 6.357909 -0.968552 -3.247124 1.641596 -6.459942 -4.420255 0.000000 0.000000 0.000000 -8.218356 4.577217 4.032148 0.000000 0.000000 0.000000 42.252435 -35.264771 -33.825933 -9.501657 -7.835291 -48.861432 -10.227589 -15.236126 -29.647298 0.000000 0.000000 0.000000 -31.114276 15.215909 -5.309920 -10.481366 0.044770 -12.202464 -29.239335 -15.525091 -44.645888 
